<svg width="30" height="31" viewBox="0 0 30 31" fill="none" xmlns="http://www.w3.org/2000/svg">
<path d="M30 30.75H0V0.75H30V30.75Z" stroke="#E5E7EB"/>
<path d="M15.9375 6.37502C11.332 6.37502 7.43555 9.39259 6.11133 13.5528C8.08008 12.5567 10.3008 12 12.6562 12H17.8125C18.3281 12 18.75 12.4219 18.75 12.9375C18.75 13.4531 18.3281 13.875 17.8125 13.875H16.875H12.6562C11.6836 13.875 10.7402 13.9863 9.83203 14.1914C8.31445 14.5371 6.90234 15.1524 5.64844 15.9903C2.24414 18.2578 0 22.1309 0 26.5313V27.4688C0 28.2481 0.626953 28.875 1.40625 28.875C2.18555 28.875 2.8125 28.2481 2.8125 27.4688V26.5313C2.8125 23.6778 4.02539 21.1113 5.96484 19.3125C7.125 23.7363 11.1504 27 15.9375 27H15.9961C23.7363 26.959 30 19.3301 30 9.9258C30 7.4297 29.5605 5.05666 28.7637 2.91799C28.6113 2.51369 28.0195 2.53127 27.8145 2.91213C26.7129 4.97463 24.5332 6.37502 22.0312 6.37502H15.9375Z" fill="#D79F3D"/>
</svg>
