<svg width="38" height="31" viewBox="0 0 38 31" fill="none" xmlns="http://www.w3.org/2000/svg">
<g clip-path="url(#clip0_60_112)">
<path d="M8.6875 0.75C9.9307 0.75 11.123 1.24386 12.0021 2.12294C12.8811 3.00201 13.375 4.1943 13.375 5.4375C13.375 6.6807 12.8811 7.87299 12.0021 8.75206C11.123 9.63114 9.9307 10.125 8.6875 10.125C7.4443 10.125 6.25201 9.63114 5.37294 8.75206C4.49386 7.87299 4 6.6807 4 5.4375C4 4.1943 4.49386 3.00201 5.37294 2.12294C6.25201 1.24386 7.4443 0.75 8.6875 0.75ZM30.25 0.75C31.4932 0.75 32.6855 1.24386 33.5646 2.12294C34.4436 3.00201 34.9375 4.1943 34.9375 5.4375C34.9375 6.6807 34.4436 7.87299 33.5646 8.75206C32.6855 9.63114 31.4932 10.125 30.25 10.125C29.0068 10.125 27.8145 9.63114 26.9354 8.75206C26.0564 7.87299 25.5625 6.6807 25.5625 5.4375C25.5625 4.1943 26.0564 3.00201 26.9354 2.12294C27.8145 1.24386 29.0068 0.75 30.25 0.75ZM0.25 18.252C0.25 14.8008 3.05078 12 6.50195 12H9.00391C9.93555 12 10.8203 12.2051 11.6172 12.5684C11.541 12.9902 11.5059 13.4297 11.5059 13.875C11.5059 16.1133 12.4902 18.123 14.043 19.5C14.0312 19.5 14.0195 19.5 14.002 19.5H1.49805C0.8125 19.5 0.25 18.9375 0.25 18.252ZM23.998 19.5C23.9863 19.5 23.9746 19.5 23.957 19.5C25.5156 18.123 26.4941 16.1133 26.4941 13.875C26.4941 13.4297 26.4531 12.9961 26.3828 12.5684C27.1797 12.1992 28.0645 12 28.9961 12H31.498C34.9492 12 37.75 14.8008 37.75 18.252C37.75 18.9434 37.1875 19.5 36.502 19.5H23.998ZM13.375 13.875C13.375 12.3832 13.9676 10.9524 15.0225 9.89752C16.0774 8.84263 17.5082 8.25 19 8.25C20.4918 8.25 21.9226 8.84263 22.9775 9.89752C24.0324 10.9524 24.625 12.3832 24.625 13.875C24.625 15.3668 24.0324 16.7976 22.9775 17.8525C21.9226 18.9074 20.4918 19.5 19 19.5C17.5082 19.5 16.0774 18.9074 15.0225 17.8525C13.9676 16.7976 13.375 15.3668 13.375 13.875ZM7.75 29.1855C7.75 24.873 11.248 21.375 15.5605 21.375H22.4395C26.752 21.375 30.25 24.873 30.25 29.1855C30.25 30.0469 29.5527 30.75 28.6855 30.75H9.31445C8.45312 30.75 7.75 30.0527 7.75 29.1855Z" fill="#D79F3D"/>
</g>
<defs>
<clipPath id="clip0_60_112">
<path d="M0.25 0.75H37.75V30.75H0.25V0.75Z" fill="white"/>
</clipPath>
</defs>
</svg>
